<svg width="35" height="36" viewBox="0 0 35 36" fill="none" xmlns="http://www.w3.org/2000/svg">
<path d="M30.1893 1H4.80996C2.47295 1 0.525078 2.88872 1.10246 5.10952C1.71739 7.46282 2.84979 9.6555 4.42013 11.5336C5.99048 13.4117 7.96072 14.9297 10.1925 15.9811C11.9331 16.7988 13.2698 18.4053 13.2698 20.2982V32.9256C13.2699 33.2792 13.3622 33.627 13.5378 33.9358C13.7134 34.2446 13.9665 34.5043 14.2731 34.6902C14.5797 34.8761 14.9295 34.982 15.2895 34.9979C15.6496 35.0138 16.0077 34.9392 16.3301 34.7811L20.56 32.7056C20.9112 32.5333 21.2067 32.2685 21.4133 31.9408C21.6198 31.6131 21.7293 31.2354 21.7296 30.8501V20.2982C21.7296 18.4053 23.0662 16.7988 24.8047 15.9811C27.0373 14.9302 29.0083 13.4124 30.5794 11.5343C32.1505 9.65614 33.2836 7.46321 33.899 5.10952C34.4721 2.88872 32.5221 1 30.1893 1Z" stroke="black" stroke-width="2"/>
</svg>
