<svg width="52" height="52" viewBox="0 0 52 52" fill="none" xmlns="http://www.w3.org/2000/svg">
<path d="M25.9986 30.9345C28.5121 30.9345 30.9226 29.936 32.6999 28.1587C34.4772 26.3813 35.4757 23.9707 35.4757 21.4572C35.4757 18.9436 34.4772 16.5331 32.6999 14.7557C30.9226 12.9784 28.5121 11.9799 25.9986 11.9799C23.4852 11.9799 21.0747 12.9784 19.2974 14.7557C17.5201 16.5331 16.5216 18.9436 16.5216 21.4572C16.5216 23.9707 17.5201 26.3813 19.2974 28.1587C21.0747 29.936 23.4852 30.9345 25.9986 30.9345ZM25.9986 30.9345C29.9501 30.9348 33.7654 32.3779 36.728 34.9927C39.6906 37.6075 41.5965 41.214 42.0878 45.1349C37.5884 48.9334 31.887 51.0117 25.9986 51C20.1103 51.0117 14.4089 48.9334 9.90946 45.1349M25.9986 30.9345C22.0472 30.9348 18.2319 32.3779 15.2693 34.9927C12.3067 37.6075 10.4008 41.214 9.90946 45.1349M9.90946 45.1349C5.98465 41.8342 3.1698 37.4063 1.84658 32.4517C0.52336 27.497 0.755787 22.2553 2.51235 17.4372C4.26891 12.6191 7.46462 8.45777 11.6662 5.51743C15.8677 2.57709 20.8718 1 26 1C31.1282 1 36.1323 2.57709 40.3338 5.51743C44.5354 8.45777 47.7311 12.6191 49.4876 17.4372C51.2442 22.2553 51.4766 27.497 50.1534 32.4517C48.8302 37.4063 46.0153 41.8342 42.0905 45.1349" stroke="black" stroke-width="2" stroke-linecap="round" stroke-linejoin="round"/>
</svg>
