<svg width="37" height="37" viewBox="0 0 37 37" fill="none" xmlns="http://www.w3.org/2000/svg">
<path d="M36 12.6673V6.8327C36 5.28577 35.3855 3.8022 34.2916 2.70836C33.1978 1.61452 31.7142 1 30.1673 1H24.3327M24.3327 36H30.1673C31.7142 36 33.1978 35.3855 34.2916 34.2916C35.3855 33.1978 36 31.7142 36 30.1673V24.3327M1 24.3327V30.1673C1 31.7142 1.61452 33.1978 2.70836 34.2916C3.8022 35.3855 5.28577 36 6.8327 36H12.6673M12.6673 1H6.8327C5.28577 1 3.8022 1.61452 2.70836 2.70836C1.61452 3.8022 1 5.28577 1 6.8327V12.6673M13.6435 6.8327H8.5354C8.08382 6.8327 7.65073 7.01209 7.33141 7.33141C7.01209 7.65073 6.8327 8.08382 6.8327 8.5354V13.6435C6.8327 14.0951 7.01209 14.5282 7.33141 14.8475C7.65073 15.1668 8.08382 15.3462 8.5354 15.3462H13.6435C14.0951 15.3462 14.5282 15.1668 14.8475 14.8475C15.1668 14.5282 15.3462 14.0951 15.3462 13.6435V8.5354C15.3462 8.08382 15.1668 7.65073 14.8475 7.33141C14.5282 7.01209 14.0951 6.8327 13.6435 6.8327ZM13.6435 21.6178H8.5354C8.08382 21.6178 7.65073 21.7972 7.33141 22.1165C7.01209 22.4359 6.8327 22.869 6.8327 23.3205V28.4286C6.8327 28.8802 7.01209 29.3133 7.33141 29.6326C7.65073 29.952 8.08382 30.1314 8.5354 30.1314H13.6435C14.0951 30.1314 14.5282 29.952 14.8475 29.6326C15.1668 29.3133 15.3462 28.8802 15.3462 28.4286V23.3205C15.3462 22.869 15.1668 22.4359 14.8475 22.1165C14.5282 21.7972 14.0951 21.6178 13.6435 21.6178ZM28.4646 6.8327H23.3565C22.9049 6.8327 22.4718 7.01209 22.1525 7.33141C21.8332 7.65073 21.6538 8.08382 21.6538 8.5354V13.6435C21.6538 14.0951 21.8332 14.5282 22.1525 14.8475C22.4718 15.1668 22.9049 15.3462 23.3565 15.3462H28.4646C28.9162 15.3462 29.3493 15.1668 29.6686 14.8475C29.9879 14.5282 30.1673 14.0951 30.1673 13.6435V8.5354C30.1673 8.08382 29.9879 7.65073 29.6686 7.33141C29.3493 7.01209 28.9162 6.8327 28.4646 6.8327ZM28.4646 21.6538H23.3565C22.9049 21.6538 22.4718 21.8332 22.1525 22.1525C21.8332 22.4718 21.6538 22.9049 21.6538 23.3565V28.4646C21.6538 28.9162 21.8332 29.3493 22.1525 29.6686C22.4718 29.9879 22.9049 30.1673 23.3565 30.1673H28.4646C28.9162 30.1673 29.3493 29.9879 29.6686 29.6686C29.9879 29.3493 30.1673 28.9162 30.1673 28.4646V23.3565C30.1673 22.9049 29.9879 22.4718 29.6686 22.1525C29.3493 21.8332 28.9162 21.6538 28.4646 21.6538Z" stroke="black" stroke-width="2" stroke-linecap="round" stroke-linejoin="round"/>
</svg>
